HIERARCHY
ROOT Hips
{
	OFFSET 0.00000 0.00000 0.00000
	CHANNELS 6 Xposition Yposition Zposition Zrotation Yrotation Xrotation 
	JOINT LHipJoint
	{
		OFFSET 0 0 0
		CHANNELS 3 Zrotation Yrotation Xrotation
		JOINT LeftHip
		{
			OFFSET 1.57358 -1.76629 0.73362
			CHANNELS 3 Zrotation Yrotation Xrotation
			JOINT LeftKnee
			{
				OFFSET 2.40600 -6.61045 0.00000
				CHANNELS 3 Zrotation Yrotation Xrotation
				JOINT LeftAnkle
				{
					OFFSET 2.66168 -7.31291 0.00000
					CHANNELS 3 Zrotation Yrotation Xrotation
					JOINT LeftToe
					{
						OFFSET 0.20870 -0.57341 2.12506
						CHANNELS 3 Zrotation Yrotation Xrotation
						End Site
						{
							OFFSET 0.00000 -0.00000 1.10557
						}
					}
				}
			}
		}
	}
	JOINT RHipJoint
	{
		OFFSET 0 0 0
		CHANNELS 3 Zrotation Yrotation Xrotation
		JOINT RightHip
		{
			OFFSET -1.49299 -1.76629 0.73362
			CHANNELS 3 Zrotation Yrotation Xrotation
			JOINT RightKnee
			{
				OFFSET -2.43663 -6.69460 0.00000
				CHANNELS 3 Zrotation Yrotation Xrotation
				JOINT RightAnkle
				{
					OFFSET -2.62959 -7.22474 0.00000
					CHANNELS 3 Zrotation Yrotation Xrotation
					JOINT RightToe
					{
						OFFSET -0.25784 -0.70841 2.21862
						CHANNELS 3 Zrotation Yrotation Xrotation
						End Site
						{
							OFFSET -0.00000 -0.00000 1.16452
						}
					}
				}
			}
		}
	}
	JOINT lowerback
	{
		OFFSET 0 0 0
		CHANNELS 3 Zrotation Yrotation Xrotation
		JOINT Chest
		{
			OFFSET -0.00034 2.12399 -0.25450
			CHANNELS 3 Zrotation Yrotation Xrotation
			JOINT Chest2
			{
				OFFSET 0.05594 2.14379 -0.03318
				CHANNELS 3 Zrotation Yrotation Xrotation
				JOINT lowerneck
				{
					OFFSET 0 0 0
					CHANNELS 3 Zrotation Yrotation Xrotation
					JOINT Neck
					{
						OFFSET -0.09835 1.62725 0.24211
						CHANNELS 3 Zrotation Yrotation Xrotation
						JOINT Head
						{
							OFFSET 0.10849 1.66041 -0.22648
							CHANNELS 3 Zrotation Yrotation Xrotation
							End Site
							{
								OFFSET 0.04385 1.68267 -0.10541
							}
						}
					}
				}
				JOINT LeftCollar
				{
					OFFSET 0 0 0
					CHANNELS 3 Zrotation Yrotation Xrotation
					JOINT LeftShoulder
					{
						OFFSET 3.29108 0.79398 -0.68179
CHANNELS 3 Zrotation Xrotation Yrotation
						JOINT LeftElbow
						{
OFFSET 0 -5.153100 -0.000000
CHANNELS 3 Zrotation Xrotation Yrotation
							JOINT LeftWrist
							{
OFFSET 0 -3.751380 -0.000000
CHANNELS 3 Zrotation Xrotation Yrotation
								JOINT lhand
								{
									OFFSET 0 0 0
CHANNELS 3 Zrotation Xrotation Yrotation
									JOINT LFingers
									{
OFFSET 0 -0.529170 0.000000
CHANNELS 3 Zrotation Xrotation Yrotation
										End Site
										{
OFFSET 0 -0.426630 0.000000
										}
									}
								}
								JOINT LThumb
								{
OFFSET 0 0.000000 0.000000
CHANNELS 3 Zrotation Xrotation Yrotation
									End Site
									{
OFFSET 0 -0.433150 0.433150
									}
								}
							}
						}
					}
				}
				JOINT RightCollar
				{
					OFFSET 0 0 0
					CHANNELS 3 Zrotation Yrotation Xrotation
					JOINT RightShoulder
					{
						OFFSET -3.07414 1.06285 -0.44338
CHANNELS 3 Zrotation Xrotation Yrotation
						JOINT RightElbow
						{
OFFSET 0 -5.296130 0.000000
CHANNELS 3 Zrotation Xrotation Yrotation
							JOINT RightWrist
							{
OFFSET 0 -3.761440 -0.000000
CHANNELS 3 Zrotation Xrotation Yrotation
								JOINT rhand
								{
									OFFSET 0 0 0
CHANNELS 3 Zrotation Xrotation Yrotation
									JOINT RFingers
									{
OFFSET 0 -0.747320 0.000000
CHANNELS 3 Zrotation Xrotation Yrotation
										End Site
										{
OFFSET 0 -0.602510 0.000000
										}
									}
								}
								JOINT RThumb
								{
OFFSET 0 0.000000 0.000000
CHANNELS 3 Zrotation Xrotation Yrotation
									End Site
									{
OFFSET 0 -0.611710 0.611710
									}
								}
							}
						}
					}
				}
			}
		}
	}
}
MOTION
Frames: 7
Frame Time: 0.008333333333333333
-4.715533 16.754545 1.293734 -7.163685 33.509022 1.069245 0.000000 0.000000 0.000000 -16.182831 -10.006624 -17.310941 18.754432 19.960330 86.355646 0.343379 -4.491830 13.641603 0.034314 1.129673 3.106356 0.000000 0.000000 0.000000 25.596893 10.189857 -21.104687 -5.833030 -14.264387 44.307516 -1.131082 -1.134232 -20.545430 -0.247063 3.125644 -8.634227 2.063473 0.156793 12.700308 3.541940 0.787474 0.382488 2.436712 0.390748 -6.758614 -8.631359 -3.265947 -22.074712 4.373380 -2.620992 15.206290 2.531252 -1.279607 8.528040 0.000000 0.000000 0.000000 4.039210 13.413385 -34.704379 92.404232 -59.977242 62.081917 18.092527 -15.009602 -8.950602 0.000000 0.000000 0.000000 -7.125000 0.000000 0.000000 -7.669017 39.277749 -1.089626 0.000000 0.000000 0.000000 -12.696743 6.399040 33.925429 -126.575091 -54.285495 -91.066960 -15.027193 -16.939220 -21.800287 0.000000 0.000000 0.000000 7.125000 0.000000 0.000000 8.670025 7.695390 7.522706
-4.678200 16.741836 1.391803 -7.178655 34.121965 0.939434 0.000000 0.000000 0.000000 -15.862994 -10.446771 -17.801222 18.958695 19.973589 86.954139 0.325537 -4.612689 13.473909 0.046443 1.380618 3.796868 0.000000 0.000000 0.000000 25.851779 9.597872 -20.576462 -5.807489 -14.239060 44.203949 -1.169545 -1.665696 -21.096691 -0.307890 3.555831 -9.831182 2.028920 0.059580 12.773325 3.563020 0.657021 0.431064 2.502335 0.328943 -6.745141 -8.641777 -3.336642 -22.188637 4.376741 -2.703877 15.194069 2.522056 -1.317521 8.549120 0.000000 0.000000 0.000000 3.962130 13.558654 -34.578937 92.718295 -59.971926 62.353851 17.919181 -15.063005 -8.875905 0.000000 0.000000 0.000000 -7.125000 0.000000 0.000000 -7.806252 39.186646 -1.126379 0.000000 0.000000 0.000000 -12.728730 6.125121 34.043386 -126.844672 -54.191184 -91.285979 -15.233778 -17.624661 -21.349661 0.000000 0.000000 0.000000 7.125000 0.000000 0.000000 8.518676 8.124569 7.313219
-4.630290 16.734244 1.475548 -7.177456 34.267001 0.984030 0.000000 0.000000 0.000000 -15.672616 -10.545675 -18.579121 19.136449 19.980623 87.474317 0.228010 -5.349300 12.436292 0.083393 0.317024 0.866436 0.000000 0.000000 0.000000 25.949009 9.379706 -20.230952 -5.777095 -14.208590 44.080070 -1.192763 -1.863724 -21.380935 -0.336563 3.723459 -10.300334 2.109557 0.108287 12.797887 3.541264 0.733314 0.428494 2.419507 0.363205 -6.762213 -8.666992 -3.422662 -22.334266 4.400834 -2.804962 15.228801 2.519745 -1.362741 8.593518 0.000000 0.000000 0.000000 3.829051 13.630991 -34.450435 92.939062 -59.967032 62.544991 17.832722 -15.124584 -8.803713 0.000000 0.000000 0.000000 -7.125000 0.000000 0.000000 -7.868945 39.105223 -1.151473 0.000000 0.000000 0.000000 -12.751670 5.822793 33.739781 -127.119502 -54.091993 -91.508481 -15.073745 -17.110778 -21.777900 0.000000 0.000000 0.000000 7.125000 0.000000 0.000000 8.639831 7.712497 7.493324
-4.580706 16.727462 1.557028 -7.173698 34.338001 1.056221 0.000000 0.000000 0.000000 -15.502722 -10.590584 -19.402529 19.310009 19.986672 87.982104 0.117874 -6.183340 11.261029 0.124270 -0.954566 -2.636929 0.000000 0.000000 0.000000 26.021292 9.220689 -19.914353 -5.745933 -14.177306 43.952979 -1.213568 -2.008994 -21.622928 -0.360149 3.849543 -10.654327 2.208420 0.180081 12.814781 3.512729 0.842320 0.417832 2.313190 0.412667 -6.784118 -8.694549 -3.511107 -22.484913 4.428208 -2.908927 15.270961 2.518523 -1.409117 8.641605 0.000000 0.000000 0.000000 3.687112 13.691787 -34.321449 93.145067 -59.962205 62.723347 17.760011 -15.187458 -8.731919 0.000000 0.000000 0.000000 -7.125000 0.000000 0.000000 -7.919842 39.025333 -1.174722 0.000000 0.000000 0.000000 -12.773177 5.515970 33.369473 -127.395163 -53.992031 -91.731533 -14.855703 -16.407129 -22.345200 0.000000 0.000000 0.000000 7.125000 0.000000 0.000000 8.804103 7.167316 7.735073
-4.531121 16.720680 1.638507 -7.169940 34.409002 1.128413 0.000000 0.000000 0.000000 -15.332829 -10.635494 -20.225938 19.483569 19.992721 88.489891 0.007738 -7.017380 10.085765 0.165147 -2.226156 -6.140294 0.000000 0.000000 0.000000 26.093576 9.061671 -19.597754 -5.714771 -14.146021 43.825887 -1.234373 -2.154263 -21.864922 -0.383734 3.975626 -11.008321 2.307282 0.251876 12.831676 3.484194 0.951326 0.407170 2.206873 0.462129 -6.806023 -8.722106 -3.599552 -22.635560 4.455581 -3.012891 15.313121 2.517301 -1.455493 8.689692 0.000000 0.000000 0.000000 3.545172 13.752583 -34.192463 93.351072 -59.957378 62.901703 17.687300 -15.250332 -8.660124 0.000000 0.000000 0.000000 -7.125000 0.000000 0.000000 -7.970740 38.945442 -1.197972 0.000000 0.000000 0.000000 -12.794685 5.209147 32.999165 -127.670824 -53.892068 -91.954585 -14.637661 -15.703481 -22.912500 0.000000 0.000000 0.000000 7.125000 0.000000 0.000000 8.968375 6.622135 7.976822
-4.478436 16.725869 1.725936 -7.149288 34.533046 1.197612 0.000000 0.000000 0.000000 -15.192144 -10.684281 -20.909811 19.599649 19.995903 88.829421 0.003168 -6.909044 9.930841 0.161796 -1.943340 -5.361000 0.000000 0.000000 0.000000 26.144692 8.888608 -19.190103 -5.664948 -14.095121 43.620941 -1.259235 -2.169717 -22.079925 -0.385972 3.988644 -11.044751 2.358816 0.300340 12.806975 3.474718 1.021549 0.404477 2.154700 0.494696 -6.795834 -8.756046 -3.660357 -22.743727 4.480773 -3.080039 15.328867 2.521506 -1.485282 8.719082 0.000000 0.000000 0.000000 3.359960 13.783216 -34.033421 93.557852 -59.951884 63.080690 17.591564 -15.331560 -8.642059 0.000000 0.000000 0.000000 -7.125000 0.000000 0.000000 -8.049837 38.919551 -1.215037 0.000000 0.000000 0.000000 -12.853732 4.916874 32.756042 -127.947513 -53.789545 -92.177908 -14.465091 -15.279370 -23.250692 0.000000 0.000000 0.000000 7.125000 0.000000 0.000000 9.092675 6.303195 8.145622
-4.423597 16.739373 1.817497 -7.116904 34.693927 1.264732 0.000000 0.000000 0.000000 -15.071742 -10.735759 -21.496786 19.675812 19.997095 89.052107 0.071907 -6.146279 10.484484 0.127732 -0.581075 -1.607637 0.000000 0.000000 0.000000 26.181109 8.705791 -18.719222 -5.602166 -14.030597 43.361931 -1.286914 -2.095020 -22.276184 -0.373385 3.923142 -10.860651 2.377483 0.332602 12.753389 3.478475 1.064839 0.407318 2.140127 0.515532 -6.763358 -8.794418 -3.701967 -22.822396 4.504450 -3.121619 15.326271 2.529480 -1.503551 8.735488 0.000000 0.000000 0.000000 3.144698 13.792900 -33.853507 93.765170 -59.945927 63.260116 17.479839 -15.425535 -8.661306 0.000000 0.000000 0.000000 -7.125000 0.000000 0.000000 -8.148517 38.931161 -1.227807 0.000000 0.000000 0.000000 -12.938847 4.634706 32.601240 -128.224915 -53.685245 -92.401418 -14.324099 -15.049382 -23.429782 0.000000 0.000000 0.000000 7.125000 0.000000 0.000000 9.189216 6.141367 8.263763
